<svg width="158" height="200" viewBox="0 0 158 200" fill="none" xmlns="http://www.w3.org/2000/svg">
<path d="M157.891 11.1534V0H150.007C150.007 4.04392 146.719 7.32688 142.646 7.32688C138.574 7.32688 135.285 4.04392 135.285 0H128.752C128.752 4.04392 125.464 7.32688 121.391 7.32688C117.319 7.32688 114.03 4.04392 114.03 0H107.497C107.497 4.04392 104.208 7.32688 100.136 7.32688C96.0631 7.32688 92.7746 4.04392 92.7746 0H86.2412C86.2412 4.04392 82.9527 7.32688 78.8802 7.32688C74.8077 7.32688 71.5192 4.04392 71.5192 0H64.9858C64.9858 4.04392 61.6973 7.32688 57.6248 7.32688C53.5523 7.32688 50.2638 4.04392 50.2638 0H43.7304C43.7304 4.04392 40.4419 7.32688 36.3694 7.32688C32.2969 7.32688 29.0084 4.04392 29.0084 0H22.475C22.475 4.04392 19.1865 7.32688 15.1358 7.32688C11.085 7.32688 7.88367 4.04392 7.88367 0H0V11.1534C4.05072 11.1534 7.36099 14.4364 7.36099 18.4803C7.36099 22.5242 4.0725 25.8072 0 25.8072V31.5034C4.05072 31.5034 7.36099 34.7864 7.36099 38.8303C7.36099 42.8742 4.0725 46.1572 0 46.1572V51.8535C4.05072 51.8535 7.36099 55.1364 7.36099 59.1803C7.36099 63.2243 4.0725 66.5072 0 66.5072V72.2035C4.05072 72.2035 7.36099 75.4865 7.36099 79.5304C7.36099 83.5743 4.0725 86.879 0 86.879V92.5753C4.05072 92.5753 7.36099 95.8582 7.36099 99.9239C7.36099 103.99 4.0725 107.273 0 107.273V112.969C4.05072 112.969 7.36099 116.252 7.36099 120.317C7.36099 124.383 4.0725 127.666 0 127.666V133.362C4.05072 133.362 7.36099 136.645 7.36099 140.711C7.36099 144.777 4.0725 148.06 0 148.06V153.756C4.05072 153.756 7.36099 157.039 7.36099 161.104C7.36099 165.17 4.0725 168.453 0 168.453V174.149C4.05072 174.149 7.36099 177.432 7.36099 181.498C7.36099 185.564 4.0725 188.847 0 188.847V200H7.88367C7.88367 195.956 11.1722 192.651 15.2447 192.651C19.3172 192.651 22.5839 195.934 22.5839 200H29.1173C29.1173 195.956 32.4058 192.651 36.4783 192.651C40.5508 192.651 43.8393 195.934 43.8393 200H50.3727C50.3727 195.956 53.6612 192.651 57.7337 192.651C61.8062 192.651 65.0947 195.934 65.0947 200H71.6281C71.6281 195.956 74.9166 192.651 78.9891 192.651C83.0616 192.651 86.3501 195.934 86.3501 200H92.8835C92.8835 195.956 96.172 192.651 100.245 192.651C104.317 192.651 107.606 195.934 107.606 200H114.139C114.139 195.956 117.427 192.651 121.5 192.651C125.572 192.651 128.861 195.934 128.861 200H135.394C135.394 195.956 138.683 192.651 142.755 192.651C146.828 192.651 150.116 195.934 150.116 200H158V188.847C153.949 188.847 150.639 185.564 150.639 181.498C150.639 177.432 153.927 174.149 158 174.149V168.453C153.949 168.453 150.639 165.17 150.639 161.104C150.639 157.039 153.927 153.756 158 153.756V148.06C153.949 148.06 150.639 144.777 150.639 140.711C150.639 136.645 153.927 133.362 158 133.362V127.666C153.949 127.666 150.639 124.383 150.639 120.317C150.639 116.252 153.927 112.969 158 112.969V107.273C153.949 107.273 150.639 103.99 150.639 99.9239C150.639 95.8582 153.927 92.5753 158 92.5753V86.879C153.949 86.879 150.639 83.5961 150.639 79.5304C150.639 75.4647 153.927 72.2035 158 72.2035V66.5072C153.949 66.5072 150.639 63.2243 150.639 59.1803C150.639 55.1364 153.927 51.8535 158 51.8535V46.1572C153.949 46.1572 150.639 42.8742 150.639 38.8303C150.639 34.7864 153.927 31.5034 158 31.5034V25.8072C153.949 25.8072 150.639 22.5242 150.639 18.4803C150.639 14.4364 153.927 11.1534 158 11.1534H157.891Z" fill="#5A9EFF"/>
<rect x="19" y="20" width="121" height="160" fill="#F8F6F1"/>
<path d="M44.5195 106C48.1406 106 51.2478 108.197 52.582 111.331C52.812 111.313 53.0446 111.302 53.2793 111.302C58.1169 111.302 62.0391 115.224 62.0391 120.062C62.0389 124.899 58.1168 128.82 53.2793 128.82C51.683 128.82 50.1873 128.392 48.8984 127.646C47.6098 128.391 46.1154 128.82 44.5195 128.82C42.9234 128.82 41.4284 128.391 40.1396 127.646C38.8509 128.391 37.3558 128.82 35.7598 128.82C30.9222 128.82 27.0002 124.899 27 120.062C27 115.224 30.9221 111.302 35.7598 111.302C35.9941 111.302 36.2263 111.313 36.4561 111.331C37.7902 108.197 40.8984 106 44.5195 106Z" fill="white" fill-opacity="0.6"/>
<path d="M105.496 120C111.178 120 116.054 123.447 118.148 128.363C118.51 128.335 118.875 128.32 119.244 128.32C126.837 128.32 132.992 134.476 132.992 142.068C132.992 149.661 126.837 155.816 119.244 155.816C116.74 155.816 114.392 155.146 112.37 153.977C110.348 155.146 108 155.816 105.496 155.816C102.992 155.816 100.644 155.146 98.6221 153.977C96.5999 155.146 94.2522 155.816 91.748 155.816C84.1554 155.816 78 149.661 78 142.068C78.0001 134.476 84.1554 128.32 91.748 128.32C92.1161 128.32 92.481 128.335 92.8418 128.363C94.9365 123.446 99.8141 120 105.496 120Z" fill="white" fill-opacity="0.6"/>
<path d="M111.085 34C115.902 34 120.035 36.9226 121.812 41.0908C122.118 41.0667 122.428 41.0547 122.74 41.0547C129.178 41.0547 134.396 46.2736 134.396 52.7109C134.396 59.1481 129.177 64.3662 122.74 64.3662C120.616 64.3662 118.627 63.7952 116.912 62.8027C115.197 63.7949 113.209 64.3662 111.085 64.3662C108.961 64.3662 106.972 63.7952 105.257 62.8027C103.542 63.7952 101.553 64.3662 99.4287 64.3662C92.9916 64.3661 87.7736 59.148 87.7734 52.7109C87.7734 46.2737 92.9915 41.0548 99.4287 41.0547C99.7409 41.0547 100.05 41.0667 100.356 41.0908C102.132 36.9222 106.268 34 111.085 34Z" fill="white" fill-opacity="0.6"/>
<path d="M30.344 150.048C29.7893 150.048 29.288 149.925 28.84 149.68C28.3973 149.435 28.048 149.096 27.792 148.664C27.5413 148.227 27.416 147.739 27.416 147.2C27.416 146.661 27.5413 146.176 27.792 145.744C28.048 145.307 28.4 144.965 28.848 144.72C29.296 144.475 29.7973 144.352 30.352 144.352C30.768 144.352 31.152 144.421 31.504 144.56C31.856 144.699 32.1547 144.901 32.4 145.168L32.024 145.544C31.5867 145.101 31.0347 144.88 30.368 144.88C29.9253 144.88 29.5227 144.981 29.16 145.184C28.7973 145.387 28.512 145.664 28.304 146.016C28.1013 146.368 28 146.763 28 147.2C28 147.637 28.1013 148.032 28.304 148.384C28.512 148.736 28.7973 149.013 29.16 149.216C29.5227 149.419 29.9253 149.52 30.368 149.52C31.04 149.52 31.592 149.296 32.024 148.848L32.4 149.224C32.1547 149.491 31.8533 149.696 31.496 149.84C31.144 149.979 30.76 150.048 30.344 150.048ZM35.0745 150.04C34.6692 150.04 34.3038 149.949 33.9785 149.768C33.6532 149.581 33.3972 149.325 33.2105 149C33.0238 148.675 32.9305 148.307 32.9305 147.896C32.9305 147.485 33.0238 147.117 33.2105 146.792C33.3972 146.467 33.6532 146.213 33.9785 146.032C34.3038 145.851 34.6692 145.76 35.0745 145.76C35.4798 145.76 35.8452 145.851 36.1705 146.032C36.4958 146.213 36.7492 146.467 36.9305 146.792C37.1172 147.117 37.2105 147.485 37.2105 147.896C37.2105 148.307 37.1172 148.675 36.9305 149C36.7492 149.325 36.4958 149.581 36.1705 149.768C35.8452 149.949 35.4798 150.04 35.0745 150.04ZM35.0745 149.536C35.3732 149.536 35.6398 149.469 35.8745 149.336C36.1145 149.197 36.3012 149.003 36.4345 148.752C36.5678 148.501 36.6345 148.216 36.6345 147.896C36.6345 147.576 36.5678 147.291 36.4345 147.04C36.3012 146.789 36.1145 146.597 35.8745 146.464C35.6398 146.325 35.3732 146.256 35.0745 146.256C34.7758 146.256 34.5065 146.325 34.2665 146.464C34.0318 146.597 33.8452 146.789 33.7065 147.04C33.5732 147.291 33.5065 147.576 33.5065 147.896C33.5065 148.216 33.5732 148.501 33.7065 148.752C33.8452 149.003 34.0318 149.197 34.2665 149.336C34.5065 149.469 34.7758 149.536 35.0745 149.536ZM42.1621 145.792V150H41.6181V149.232C41.4688 149.488 41.2635 149.688 41.0021 149.832C40.7408 149.971 40.4421 150.04 40.1061 150.04C39.5568 150.04 39.1221 149.888 38.8021 149.584C38.4875 149.275 38.3301 148.824 38.3301 148.232V145.792H38.8981V148.176C38.8981 148.619 39.0075 148.955 39.2261 149.184C39.4448 149.413 39.7568 149.528 40.1621 149.528C40.6048 149.528 40.9541 149.395 41.2101 149.128C41.4661 148.856 41.5941 148.48 41.5941 148V145.792H42.1621ZM45.8969 145.76C46.4249 145.76 46.8436 145.915 47.1529 146.224C47.4676 146.528 47.6249 146.973 47.6249 147.56V150H47.0569V147.616C47.0569 147.179 46.9476 146.845 46.7289 146.616C46.5103 146.387 46.1983 146.272 45.7929 146.272C45.3396 146.272 44.9796 146.408 44.7129 146.68C44.4516 146.947 44.3209 147.317 44.3209 147.792V150H43.7529V145.792H44.2969V146.568C44.4516 146.312 44.6649 146.115 44.9369 145.976C45.2143 145.832 45.5343 145.76 45.8969 145.76ZM51.239 149.744C51.1323 149.84 51.0017 149.915 50.847 149.968C50.6923 150.016 50.5297 150.04 50.359 150.04C49.9643 150.04 49.6603 149.933 49.447 149.72C49.2337 149.507 49.127 149.205 49.127 148.816V144.872H49.695V145.792H50.967V146.272H49.695V148.784C49.695 149.035 49.7563 149.227 49.879 149.36C50.0017 149.488 50.1803 149.552 50.415 149.552C50.671 149.552 50.879 149.48 51.039 149.336L51.239 149.744ZM52.8126 146.616C52.9459 146.333 53.1432 146.12 53.4046 145.976C53.6712 145.832 53.9992 145.76 54.3886 145.76V146.312L54.2526 146.304C53.8099 146.304 53.4632 146.44 53.2126 146.712C52.9619 146.984 52.8366 147.365 52.8366 147.856V150H52.2686V145.792H52.8126V146.616ZM59.2715 145.792V149.488C59.2715 150.203 59.1088 150.731 58.7835 151.072C58.4582 151.419 57.9675 151.592 57.3115 151.592C56.9435 151.592 56.5942 151.533 56.2635 151.416C55.9382 151.304 55.6742 151.147 55.4715 150.944L55.7595 150.512C55.9408 150.693 56.1648 150.835 56.4315 150.936C56.6982 151.037 56.9835 151.088 57.2875 151.088C57.7728 151.088 58.1302 150.963 58.3595 150.712C58.5888 150.467 58.7035 150.083 58.7035 149.56V149.072C58.5542 149.317 58.3488 149.507 58.0875 149.64C57.8315 149.773 57.5408 149.84 57.2155 149.84C56.6662 149.84 56.2315 149.688 55.9115 149.384C55.5968 149.075 55.4395 148.624 55.4395 148.032V145.792H56.0075V147.976C56.0075 148.419 56.1168 148.755 56.3355 148.984C56.5542 149.213 56.8662 149.328 57.2715 149.328C57.7142 149.328 58.0635 149.195 58.3195 148.928C58.5755 148.656 58.7035 148.28 58.7035 147.8V145.792H59.2715ZM60.6223 144.4H61.1263L61.0863 146.512H60.6623L60.6223 144.4ZM63.6075 150.04C63.2662 150.04 62.9382 149.992 62.6235 149.896C62.3142 149.795 62.0715 149.669 61.8955 149.52L62.1515 149.072C62.3275 149.211 62.5488 149.325 62.8155 149.416C63.0822 149.501 63.3595 149.544 63.6475 149.544C64.0315 149.544 64.3142 149.485 64.4955 149.368C64.6822 149.245 64.7755 149.075 64.7755 148.856C64.7755 148.701 64.7248 148.581 64.6235 148.496C64.5222 148.405 64.3942 148.339 64.2395 148.296C64.0848 148.248 63.8795 148.203 63.6235 148.16C63.2822 148.096 63.0075 148.032 62.7995 147.968C62.5915 147.899 62.4128 147.784 62.2635 147.624C62.1195 147.464 62.0475 147.243 62.0475 146.96C62.0475 146.608 62.1942 146.32 62.4875 146.096C62.7808 145.872 63.1888 145.76 63.7115 145.76C63.9835 145.76 64.2555 145.797 64.5275 145.872C64.7995 145.941 65.0235 146.035 65.1995 146.152L64.9515 146.608C64.6048 146.368 64.1915 146.248 63.7115 146.248C63.3488 146.248 63.0742 146.312 62.8875 146.44C62.7062 146.568 62.6155 146.736 62.6155 146.944C62.6155 147.104 62.6662 147.232 62.7675 147.328C62.8742 147.424 63.0048 147.496 63.1595 147.544C63.3142 147.587 63.5275 147.632 63.7995 147.68C64.1355 147.744 64.4048 147.808 64.6075 147.872C64.8102 147.936 64.9835 148.045 65.1275 148.2C65.2715 148.355 65.3435 148.568 65.3435 148.84C65.3435 149.208 65.1888 149.501 64.8795 149.72C64.5755 149.933 64.1515 150.04 63.6075 150.04ZM70.6313 145.76C71.1593 145.76 71.578 145.915 71.8873 146.224C72.202 146.528 72.3593 146.973 72.3593 147.56V150H71.7913V147.616C71.7913 147.179 71.682 146.845 71.4633 146.616C71.2446 146.387 70.9326 146.272 70.5273 146.272C70.074 146.272 69.714 146.408 69.4473 146.68C69.186 146.947 69.0553 147.317 69.0553 147.792V150H68.4873V145.792H69.0313V146.568C69.186 146.312 69.3993 146.115 69.6713 145.976C69.9486 145.832 70.2686 145.76 70.6313 145.76ZM77.757 145.792V150H77.213V149.168C77.0423 149.451 76.8157 149.667 76.533 149.816C76.2557 149.965 75.941 150.04 75.589 150.04C75.1943 150.04 74.837 149.949 74.517 149.768C74.197 149.587 73.9463 149.333 73.765 149.008C73.5837 148.683 73.493 148.312 73.493 147.896C73.493 147.48 73.5837 147.109 73.765 146.784C73.9463 146.459 74.197 146.208 74.517 146.032C74.837 145.851 75.1943 145.76 75.589 145.76C75.9303 145.76 76.237 145.832 76.509 145.976C76.7863 146.115 77.013 146.32 77.189 146.592V145.792H77.757ZM75.637 149.536C75.9303 149.536 76.1943 149.469 76.429 149.336C76.669 149.197 76.8557 149.003 76.989 148.752C77.1277 148.501 77.197 148.216 77.197 147.896C77.197 147.576 77.1277 147.291 76.989 147.04C76.8557 146.789 76.669 146.597 76.429 146.464C76.1943 146.325 75.9303 146.256 75.637 146.256C75.3383 146.256 75.069 146.325 74.829 146.464C74.5943 146.597 74.4077 146.789 74.269 147.04C74.1357 147.291 74.069 147.576 74.069 147.896C74.069 148.216 74.1357 148.501 74.269 148.752C74.4077 149.003 74.5943 149.197 74.829 149.336C75.069 149.469 75.3383 149.536 75.637 149.536ZM84.5869 145.76C85.1149 145.76 85.5282 145.912 85.8269 146.216C86.1309 146.52 86.2829 146.968 86.2829 147.56V150H85.7149V147.616C85.7149 147.179 85.6082 146.845 85.3949 146.616C85.1869 146.387 84.8909 146.272 84.5069 146.272C84.0695 146.272 83.7255 146.408 83.4749 146.68C83.2242 146.947 83.0989 147.317 83.0989 147.792V150H82.5309V147.616C82.5309 147.179 82.4242 146.845 82.2109 146.616C82.0029 146.387 81.7042 146.272 81.3149 146.272C80.8829 146.272 80.5389 146.408 80.2829 146.68C80.0322 146.947 79.9069 147.317 79.9069 147.792V150H79.3389V145.792H79.8829V146.56C80.0322 146.304 80.2402 146.107 80.5069 145.968C80.7735 145.829 81.0802 145.76 81.4269 145.76C81.7789 145.76 82.0829 145.835 82.3389 145.984C82.6002 146.133 82.7949 146.355 82.9229 146.648C83.0775 146.371 83.2989 146.155 83.5869 146C83.8802 145.84 84.2135 145.76 84.5869 145.76ZM89.6389 149.536C89.9002 149.536 90.1402 149.491 90.3589 149.4C90.5829 149.304 90.7722 149.165 90.9269 148.984L91.2469 149.352C91.0602 149.576 90.8282 149.747 90.5509 149.864C90.2735 149.981 89.9669 150.04 89.6309 150.04C89.1989 150.04 88.8149 149.949 88.4789 149.768C88.1429 149.581 87.8815 149.325 87.6949 149C87.5082 148.675 87.4149 148.307 87.4149 147.896C87.4149 147.485 87.5029 147.117 87.6789 146.792C87.8602 146.467 88.1082 146.213 88.4229 146.032C88.7375 145.851 89.0949 145.76 89.4949 145.76C89.8682 145.76 90.2042 145.845 90.5029 146.016C90.8069 146.187 91.0469 146.424 91.2229 146.728C91.4042 147.032 91.5002 147.379 91.5109 147.768L88.0549 148.44C88.1615 148.781 88.3535 149.051 88.6309 149.248C88.9135 149.44 89.2495 149.536 89.6389 149.536ZM89.4949 146.248C89.2015 146.248 88.9375 146.317 88.7029 146.456C88.4735 146.589 88.2922 146.779 88.1589 147.024C88.0309 147.264 87.9669 147.541 87.9669 147.856C87.9669 147.936 87.9695 147.995 87.9749 148.032L90.9429 147.456C90.8789 147.104 90.7162 146.816 90.4549 146.592C90.1935 146.363 89.8735 146.248 89.4949 146.248Z" fill="#3E6190"/>
<path d="M33.688 168.192C32.5467 168.192 31.512 167.947 30.584 167.456C29.6667 166.955 28.9413 166.267 28.408 165.392C27.8853 164.507 27.624 163.509 27.624 162.4C27.624 161.291 27.8853 160.299 28.408 159.424C28.9413 158.539 29.6667 157.851 30.584 157.36C31.512 156.859 32.552 156.608 33.704 156.608C34.6747 156.608 35.5493 156.779 36.328 157.12C37.1173 157.461 37.7787 157.952 38.312 158.592L36.648 160.128C35.8907 159.253 34.952 158.816 33.832 158.816C33.1387 158.816 32.52 158.971 31.976 159.28C31.432 159.579 31.0053 160 30.696 160.544C30.3973 161.088 30.248 161.707 30.248 162.4C30.248 163.093 30.3973 163.712 30.696 164.256C31.0053 164.8 31.432 165.227 31.976 165.536C32.52 165.835 33.1387 165.984 33.832 165.984C34.952 165.984 35.8907 165.541 36.648 164.656L38.312 166.192C37.7787 166.843 37.1173 167.339 36.328 167.68C35.5387 168.021 34.6587 168.192 33.688 168.192ZM39.8864 159.392H42.3824V168H39.8864V159.392ZM41.1344 158.192C40.6757 158.192 40.3024 158.059 40.0144 157.792C39.7264 157.525 39.5824 157.195 39.5824 156.8C39.5824 156.405 39.7264 156.075 40.0144 155.808C40.3024 155.541 40.6757 155.408 41.1344 155.408C41.593 155.408 41.9664 155.536 42.2544 155.792C42.5424 156.048 42.6864 156.368 42.6864 156.752C42.6864 157.168 42.5424 157.515 42.2544 157.792C41.9664 158.059 41.593 158.192 41.1344 158.192ZM49.8829 167.584C49.6375 167.765 49.3335 167.904 48.9709 168C48.6189 168.085 48.2509 168.128 47.8669 168.128C46.8322 168.128 46.0375 167.867 45.4829 167.344C44.9282 166.821 44.6509 166.053 44.6509 165.04V157.488H47.1469V159.584H49.2749V161.504H47.1469V165.008C47.1469 165.371 47.2375 165.653 47.4189 165.856C47.6002 166.048 47.8615 166.144 48.2029 166.144C48.5869 166.144 48.9282 166.037 49.2269 165.824L49.8829 167.584ZM59.9646 159.392V166.56C59.9646 168.139 59.5646 169.312 58.7646 170.08C57.9646 170.848 56.802 171.232 55.2766 171.232C54.466 171.232 53.698 171.131 52.9726 170.928C52.258 170.725 51.6553 170.432 51.1646 170.048L52.1566 168.256C52.5193 168.555 52.962 168.789 53.4846 168.96C54.0073 169.131 54.5353 169.216 55.0686 169.216C55.9006 169.216 56.5086 169.024 56.8926 168.64C57.2766 168.256 57.4686 167.669 57.4686 166.88V166.592C57.1486 166.912 56.77 167.157 56.3326 167.328C55.8953 167.499 55.426 167.584 54.9246 167.584C53.794 167.584 52.898 167.264 52.2366 166.624C51.5753 165.973 51.2446 165.003 51.2446 163.712V159.392H53.7406V163.344C53.7406 164.741 54.322 165.44 55.4846 165.44C56.082 165.44 56.562 165.248 56.9246 164.864C57.2873 164.469 57.4686 163.888 57.4686 163.12V159.392H59.9646ZM61.909 156.8H64.037L63.861 161.344H62.069L61.909 156.8ZM68.8605 168.128C68.1458 168.128 67.4472 168.043 66.7645 167.872C66.0818 167.691 65.5378 167.467 65.1325 167.2L65.9645 165.408C66.3485 165.653 66.8125 165.856 67.3565 166.016C67.9005 166.165 68.4338 166.24 68.9565 166.24C70.0125 166.24 70.5405 165.979 70.5405 165.456C70.5405 165.211 70.3965 165.035 70.1085 164.928C69.8205 164.821 69.3778 164.731 68.7805 164.656C68.0765 164.549 67.4952 164.427 67.0365 164.288C66.5778 164.149 66.1778 163.904 65.8365 163.552C65.5058 163.2 65.3405 162.699 65.3405 162.048C65.3405 161.504 65.4952 161.024 65.8045 160.608C66.1245 160.181 66.5832 159.851 67.1805 159.616C67.7885 159.381 68.5032 159.264 69.3245 159.264C69.9325 159.264 70.5352 159.333 71.1325 159.472C71.7405 159.6 72.2418 159.781 72.6365 160.016L71.8045 161.792C71.0472 161.365 70.2205 161.152 69.3245 161.152C68.7912 161.152 68.3912 161.227 68.1245 161.376C67.8578 161.525 67.7245 161.717 67.7245 161.952C67.7245 162.219 67.8685 162.405 68.1565 162.512C68.4445 162.619 68.9032 162.72 69.5325 162.816C70.2365 162.933 70.8125 163.061 71.2605 163.2C71.7085 163.328 72.0978 163.568 72.4285 163.92C72.7592 164.272 72.9245 164.763 72.9245 165.392C72.9245 165.925 72.7645 166.4 72.4445 166.816C72.1245 167.232 71.6552 167.557 71.0365 167.792C70.4285 168.016 69.7032 168.128 68.8605 168.128ZM84.2278 159.264C85.2944 159.264 86.1531 159.584 86.8038 160.224C87.4651 160.864 87.7958 161.813 87.7958 163.072V168H85.2998V163.456C85.2998 162.773 85.1504 162.267 84.8518 161.936C84.5531 161.595 84.1211 161.424 83.5558 161.424C82.9264 161.424 82.4251 161.621 82.0518 162.016C81.6784 162.4 81.4918 162.976 81.4918 163.744V168H78.9958V159.392H81.3798V160.4C81.7104 160.037 82.1211 159.76 82.6118 159.568C83.1024 159.365 83.6411 159.264 84.2278 159.264ZM98.888 159.392V168H96.504V167.008C95.8853 167.755 94.9893 168.128 93.816 168.128C93.0053 168.128 92.2693 167.947 91.608 167.584C90.9573 167.221 90.4453 166.704 90.072 166.032C89.6987 165.36 89.512 164.581 89.512 163.696C89.512 162.811 89.6987 162.032 90.072 161.36C90.4453 160.688 90.9573 160.171 91.608 159.808C92.2693 159.445 93.0053 159.264 93.816 159.264C94.9147 159.264 95.7733 159.611 96.392 160.304V159.392H98.888ZM94.248 166.08C94.8773 166.08 95.4 165.867 95.816 165.44C96.232 165.003 96.44 164.421 96.44 163.696C96.44 162.971 96.232 162.395 95.816 161.968C95.4 161.531 94.8773 161.312 94.248 161.312C93.608 161.312 93.08 161.531 92.664 161.968C92.248 162.395 92.04 162.971 92.04 163.696C92.04 164.421 92.248 165.003 92.664 165.44C93.08 165.867 93.608 166.08 94.248 166.08ZM112.223 159.264C113.3 159.264 114.154 159.584 114.783 160.224C115.423 160.853 115.743 161.803 115.743 163.072V168H113.247V163.456C113.247 162.773 113.103 162.267 112.815 161.936C112.538 161.595 112.138 161.424 111.615 161.424C111.028 161.424 110.564 161.616 110.223 162C109.882 162.373 109.711 162.933 109.711 163.68V168H107.215V163.456C107.215 162.101 106.671 161.424 105.583 161.424C105.007 161.424 104.548 161.616 104.207 162C103.866 162.373 103.695 162.933 103.695 163.68V168H101.199V159.392H103.583V160.384C103.903 160.021 104.292 159.744 104.751 159.552C105.22 159.36 105.732 159.264 106.287 159.264C106.895 159.264 107.444 159.387 107.935 159.632C108.426 159.867 108.82 160.213 109.119 160.672C109.471 160.224 109.914 159.877 110.447 159.632C110.991 159.387 111.583 159.264 112.223 159.264ZM122.41 166.128C122.858 166.128 123.253 166.064 123.594 165.936C123.946 165.797 124.271 165.584 124.57 165.296L125.898 166.736C125.087 167.664 123.903 168.128 122.346 168.128C121.375 168.128 120.517 167.941 119.77 167.568C119.023 167.184 118.447 166.656 118.042 165.984C117.637 165.312 117.434 164.549 117.434 163.696C117.434 162.853 117.631 162.096 118.026 161.424C118.431 160.741 118.981 160.213 119.674 159.84C120.378 159.456 121.167 159.264 122.042 159.264C122.863 159.264 123.61 159.44 124.282 159.792C124.954 160.133 125.487 160.635 125.882 161.296C126.287 161.947 126.49 162.72 126.49 163.616L120.122 164.848C120.303 165.275 120.586 165.595 120.97 165.808C121.365 166.021 121.845 166.128 122.41 166.128ZM122.042 161.152C121.413 161.152 120.901 161.355 120.506 161.76C120.111 162.165 119.903 162.725 119.882 163.44L124.074 162.624C123.957 162.176 123.717 161.819 123.354 161.552C122.991 161.285 122.554 161.152 122.042 161.152Z" fill="#3E6190"/>
<path d="M33.904 30.352C34.544 30.352 35.0427 30.536 35.4 30.904C35.7573 31.272 35.936 31.8053 35.936 32.504V36H35.352V32.52C35.352 31.976 35.2133 31.568 34.936 31.296C34.664 31.0187 34.2907 30.88 33.816 30.88C33.3147 30.88 32.9227 31.0267 32.64 31.32C32.3573 31.608 32.216 32.0507 32.216 32.648V36H31.632V32.52C31.632 31.976 31.4987 31.568 31.232 31.296C30.9653 31.0187 30.5947 30.88 30.12 30.88C29.6133 30.88 29.216 31.0267 28.928 31.32C28.6453 31.608 28.504 32.0507 28.504 32.648V36H27.912V30.4H28.48V31.336C28.6347 31.016 28.864 30.7733 29.168 30.608C29.472 30.4373 29.832 30.352 30.248 30.352C30.6853 30.352 31.0587 30.4453 31.368 30.632C31.6827 30.8133 31.9093 31.0693 32.048 31.4C32.208 31.0587 32.448 30.8 32.768 30.624C33.0933 30.4427 33.472 30.352 33.904 30.352ZM39.3167 36.04C38.9114 36.04 38.546 35.9493 38.2207 35.768C37.8954 35.5813 37.6394 35.3253 37.4527 35C37.266 34.6747 37.1727 34.3067 37.1727 33.896C37.1727 33.4853 37.266 33.1173 37.4527 32.792C37.6394 32.4667 37.8954 32.2133 38.2207 32.032C38.546 31.8507 38.9114 31.76 39.3167 31.76C39.722 31.76 40.0874 31.8507 40.4127 32.032C40.738 32.2133 40.9914 32.4667 41.1727 32.792C41.3594 33.1173 41.4527 33.4853 41.4527 33.896C41.4527 34.3067 41.3594 34.6747 41.1727 35C40.9914 35.3253 40.738 35.5813 40.4127 35.768C40.0874 35.9493 39.722 36.04 39.3167 36.04ZM39.3167 35.536C39.6154 35.536 39.882 35.4693 40.1167 35.336C40.3567 35.1973 40.5434 35.0027 40.6767 34.752C40.81 34.5013 40.8767 34.216 40.8767 33.896C40.8767 33.576 40.81 33.2907 40.6767 33.04C40.5434 32.7893 40.3567 32.5973 40.1167 32.464C39.882 32.3253 39.6154 32.256 39.3167 32.256C39.018 32.256 38.7487 32.3253 38.5087 32.464C38.274 32.5973 38.0874 32.7893 37.9487 33.04C37.8154 33.2907 37.7487 33.576 37.7487 33.896C37.7487 34.216 37.8154 34.5013 37.9487 34.752C38.0874 35.0027 38.274 35.1973 38.5087 35.336C38.7487 35.4693 39.018 35.536 39.3167 35.536ZM44.7563 31.76C45.2843 31.76 45.703 31.9147 46.0123 32.224C46.327 32.528 46.4843 32.9733 46.4843 33.56V36H45.9163V33.616C45.9163 33.1787 45.807 32.8453 45.5883 32.616C45.3696 32.3867 45.0576 32.272 44.6523 32.272C44.199 32.272 43.839 32.408 43.5723 32.68C43.311 32.9467 43.1803 33.3173 43.1803 33.792V36H42.6123V31.792H43.1563V32.568C43.311 32.312 43.5243 32.1147 43.7963 31.976C44.0736 31.832 44.3936 31.76 44.7563 31.76ZM50.0984 35.744C49.9917 35.84 49.861 35.9147 49.7064 35.968C49.5517 36.016 49.389 36.04 49.2184 36.04C48.8237 36.04 48.5197 35.9333 48.3064 35.72C48.093 35.5067 47.9864 35.2053 47.9864 34.816V30.872H48.5544V31.792H49.8264V32.272H48.5544V34.784C48.5544 35.0347 48.6157 35.2267 48.7384 35.36C48.861 35.488 49.0397 35.552 49.2744 35.552C49.5304 35.552 49.7384 35.48 49.8984 35.336L50.0984 35.744ZM53.2719 31.76C53.7999 31.76 54.2186 31.9147 54.5279 32.224C54.8426 32.528 54.9999 32.9733 54.9999 33.56V36H54.4319V33.616C54.4319 33.1787 54.3226 32.8453 54.1039 32.616C53.8853 32.3867 53.5733 32.272 53.1679 32.272C52.7146 32.272 52.3546 32.408 52.0879 32.68C51.8266 32.9467 51.6959 33.3173 51.6959 33.792V36H51.1279V30.064H51.6959V32.528C51.8506 32.2827 52.0639 32.0933 52.3359 31.96C52.6079 31.8267 52.9199 31.76 53.2719 31.76Z" fill="#3E6190"/>
<path d="M35.136 61.288C33.744 61.288 32.504 60.944 31.416 60.256C30.328 59.568 29.472 58.576 28.848 57.28C28.24 55.968 27.936 54.408 27.936 52.6C27.936 50.792 28.24 49.24 28.848 47.944C29.472 46.632 30.328 45.632 31.416 44.944C32.504 44.256 33.744 43.912 35.136 43.912C36.528 43.912 37.768 44.256 38.856 44.944C39.944 45.632 40.792 46.632 41.4 47.944C42.024 49.24 42.336 50.792 42.336 52.6C42.336 54.408 42.024 55.968 41.4 57.28C40.792 58.576 39.944 59.568 38.856 60.256C37.768 60.944 36.528 61.288 35.136 61.288ZM35.136 58C36.16 58 36.96 57.56 37.536 56.68C38.128 55.8 38.424 54.44 38.424 52.6C38.424 50.76 38.128 49.4 37.536 48.52C36.96 47.64 36.16 47.2 35.136 47.2C34.128 47.2 33.328 47.64 32.736 48.52C32.16 49.4 31.872 50.76 31.872 52.6C31.872 54.44 32.16 55.8 32.736 56.68C33.328 57.56 34.128 58 35.136 58ZM51.4251 61.288C50.0331 61.288 48.7931 60.944 47.7051 60.256C46.6171 59.568 45.7611 58.576 45.1371 57.28C44.5291 55.968 44.2251 54.408 44.2251 52.6C44.2251 50.792 44.5291 49.24 45.1371 47.944C45.7611 46.632 46.6171 45.632 47.7051 44.944C48.7931 44.256 50.0331 43.912 51.4251 43.912C52.8171 43.912 54.0571 44.256 55.1451 44.944C56.2331 45.632 57.0811 46.632 57.6891 47.944C58.3131 49.24 58.6251 50.792 58.6251 52.6C58.6251 54.408 58.3131 55.968 57.6891 57.28C57.0811 58.576 56.2331 59.568 55.1451 60.256C54.0571 60.944 52.8171 61.288 51.4251 61.288ZM51.4251 58C52.4491 58 53.2491 57.56 53.8251 56.68C54.4171 55.8 54.7131 54.44 54.7131 52.6C54.7131 50.76 54.4171 49.4 53.8251 48.52C53.2491 47.64 52.4491 47.2 51.4251 47.2C50.4171 47.2 49.6171 47.64 49.0251 48.52C48.4491 49.4 48.1611 50.76 48.1611 52.6C48.1611 54.44 48.4491 55.8 49.0251 56.68C49.6171 57.56 50.4171 58 51.4251 58ZM62.7461 43C63.4181 43 63.9701 43.216 64.4021 43.648C64.8341 44.064 65.0501 44.616 65.0501 45.304C65.0501 45.624 65.0101 45.944 64.9301 46.264C64.8501 46.584 64.6821 47.064 64.4261 47.704L63.0341 51.16H60.6581L61.6901 47.368C61.2901 47.192 60.9781 46.928 60.7541 46.576C60.5301 46.224 60.4181 45.8 60.4181 45.304C60.4181 44.616 60.6341 44.064 61.0661 43.648C61.5141 43.216 62.0741 43 62.7461 43Z" fill="#3E6190"/>
<g clip-path="url(#clip0_2002_592)">
<path d="M134.494 58.7561H129.523C129.161 58.7561 128.821 58.5015 128.753 58.1285C128.476 56.7194 127.281 55.6537 125.849 55.6537C124.416 55.6537 123.222 56.7194 122.944 58.1285C122.876 58.5015 122.537 58.7561 122.174 58.7561H101.793C101.368 58.7561 101.057 58.4127 101.011 58.0219C100.989 57.8739 101.011 57.72 101.079 57.572C101.079 57.5483 101.091 57.5305 101.102 57.5187C103.361 53.3861 106.95 50.1534 111.259 48.4601C113.399 47.6193 115.72 47.1635 118.143 47.1635C125.441 47.1635 131.81 51.3316 135.185 57.5187C135.485 58.0693 135.094 58.7561 134.488 58.7561H134.494Z" stroke="#B5D5FF" stroke-width="1.5" stroke-miterlimit="10"/>
<path d="M100.989 58.0397C100.938 58.4246 100.621 58.7561 100.202 58.7561H79.82C79.4576 58.7561 79.1236 58.5015 79.05 58.1285C78.7782 56.7194 77.578 55.6537 76.1512 55.6537C74.7245 55.6537 73.5186 56.7194 73.2468 58.1285C73.1732 58.5015 72.8392 58.7561 72.4769 58.7561H67.5003C66.9002 58.7561 66.5095 58.0693 66.8096 57.5187C70.1839 51.3316 76.5532 47.1635 83.851 47.1635C86.0421 47.1635 88.1595 47.5365 90.1241 48.2351C94.625 49.8159 98.3957 53.0664 100.757 57.2819C100.807 57.3648 100.847 57.4358 100.892 57.5187C100.983 57.6845 101.011 57.868 100.983 58.0397H100.989Z" stroke="#B5D5FF" stroke-width="1.5" stroke-miterlimit="10"/>
<path d="M100.774 58.756L86.5742 74.0372C86.3251 74.3096 85.9175 74.3866 85.6118 74.1853C84.4511 73.4097 82.8885 73.5636 81.8864 74.6412C80.89 75.7128 80.7824 77.3469 81.5581 78.5429C81.7619 78.8567 81.7053 79.2889 81.4505 79.5553L77.9856 83.2853C77.5666 83.7412 76.825 83.5518 76.6608 82.9419C74.7698 76.0976 76.3437 68.4126 81.4335 62.9419C83.081 61.1657 84.9664 59.7684 86.9762 58.756H100.207C100.626 58.756 100.938 58.4245 100.994 58.0455C101.034 58.2942 100.966 58.5547 100.779 58.756H100.774Z" stroke="#B5D5FF" stroke-width="1.5" stroke-miterlimit="10"/>
<path d="M125.334 82.942C125.169 83.5518 124.428 83.7353 124.009 83.2853L120.55 79.5553C120.295 79.2889 120.232 78.8567 120.436 78.5429C121.212 77.3528 121.11 75.7187 120.108 74.6412C119.111 73.5695 117.549 73.4097 116.388 74.1853C116.083 74.3866 115.675 74.3155 115.42 74.0373L101.221 58.756C101.028 58.5488 101.368 58.756 101.793 58.756H115.024C117.034 59.7685 118.919 61.1657 120.566 62.9419C125.656 68.4126 127.23 76.0977 125.339 82.942H125.334Z" stroke="#B5D5FF" stroke-width="1.5" stroke-miterlimit="10"/>
<path d="M125.86 34.0136L122.248 37.5897C121.988 37.8502 121.58 37.9094 121.28 37.6903C120.153 36.8614 118.585 36.9502 117.549 37.9804C116.507 39.0106 116.337 40.6388 117.068 41.8644C117.254 42.19 117.181 42.6163 116.92 42.8709L111.264 48.4659C106.95 50.1533 103.367 53.386 101.108 57.5245C101.096 57.5423 101.091 57.5601 101.085 57.5778C100.955 57.4831 100.858 57.3351 100.813 57.1575C100.813 57.1456 100.813 57.1338 100.802 57.1219C100.049 53.9011 100.06 50.5322 100.813 47.3232C101.679 43.6287 103.536 40.1592 106.373 37.3469C111.666 32.1012 119.032 30.5618 125.554 32.6222C126.132 32.8058 126.296 33.5873 125.86 34.0136Z" stroke="#B5D5FF" stroke-width="1.5" stroke-miterlimit="10"/>
<path d="M100.802 57.1279C100.802 57.1279 100.802 57.1516 100.813 57.1635C100.802 57.2108 100.785 57.2523 100.762 57.2937C98.3957 53.0841 94.6251 49.8337 90.1298 48.2469L84.7059 42.8769C84.4399 42.6223 84.3663 42.196 84.5587 41.8704C85.2834 40.6448 85.1136 39.0166 84.0775 37.9864C83.0358 36.9562 81.4675 36.8674 80.3409 37.6963C80.0465 37.9154 79.6332 37.8562 79.3727 37.5957L75.7606 34.0196C75.3247 33.5874 75.4889 32.8118 76.0663 32.6282C82.5885 30.5619 89.9542 32.1072 95.2535 37.3529C98.09 40.1534 99.947 43.6347 100.819 47.3292C100.066 50.5382 100.055 53.9071 100.808 57.1279H100.802Z" stroke="#B5D5FF" stroke-width="1.5" stroke-miterlimit="10"/>
<path d="M98.3164 61.4915L95.8196 115.476" stroke="#B5D5FF" stroke-width="1.5" stroke-miterlimit="10"/>
<path d="M103.684 61.4915L106.18 115.476" stroke="#B5D5FF" stroke-width="1.5" stroke-miterlimit="10"/>
<path d="M97.6257 73.1729H104.374" stroke="#B5D5FF" stroke-width="1.5" stroke-miterlimit="10"/>
<path d="M97.6257 82.6815H104.374" stroke="#B5D5FF" stroke-width="1.5" stroke-miterlimit="10"/>
<path d="M96.5896 92.1959H105.41" stroke="#B5D5FF" stroke-width="1.5" stroke-miterlimit="10"/>
<path d="M96.5896 101.705H105.41" stroke="#B5D5FF" stroke-width="1.5" stroke-miterlimit="10"/>
<path d="M118.709 126.885C119.502 126.885 119.961 125.944 119.496 125.269C115.386 119.224 108.632 115.281 101 115.281C93.3682 115.281 86.6139 119.224 82.5035 125.269C82.045 125.944 82.5035 126.885 83.2905 126.885H85.0343C85.4532 126.885 85.8043 127.169 85.9515 127.578C86.512 129.141 87.95 130.254 89.6428 130.254C91.3356 130.254 92.7737 129.141 93.3342 127.578C93.4814 127.169 93.8324 126.885 94.2514 126.885H96.3971C96.8161 126.885 97.1671 127.169 97.3143 127.578C97.8748 129.141 99.3128 130.254 101.006 130.254C102.698 130.254 104.137 129.141 104.697 127.578C104.844 127.169 105.195 126.885 105.614 126.885H107.76C108.179 126.885 108.53 127.169 108.677 127.578C109.238 129.141 110.676 130.254 112.368 130.254C114.061 130.254 115.499 129.141 116.06 127.578C116.207 127.169 116.558 126.885 116.977 126.885H118.721H118.709Z" stroke="#B5D5FF" stroke-width="1.5" stroke-miterlimit="10"/>
</g>
<defs>
<clipPath id="clip0_2002_592">
<rect width="70" height="100" fill="white" transform="translate(66 31)"/>
</clipPath>
</defs>
</svg>
